<svg id="visual" viewBox="0 0 900 900" width="900" height="900" xmlns="http://www.w3.org/2000/svg" xmlns:xlink="http://www.w3.org/1999/xlink" version="1.1"><rect width="900" height="900" fill="#001829"></rect><g><g transform="translate(737 188)"><path d="M0 -180L155.9 -90L155.9 90L0 180L-155.9 90L-155.9 -90Z" fill="#297EA6"></path></g><g transform="translate(174 866)"><path d="M0 -101L87.5 -50.5L87.5 50.5L0 101L-87.5 50.5L-87.5 -50.5Z" fill="#297EA6"></path></g><g transform="translate(199 377)"><path d="M0 -163L141.2 -81.5L141.2 81.5L0 163L-141.2 81.5L-141.2 -81.5Z" fill="#297EA6"></path></g><g transform="translate(809 636)"><path d="M0 -133L115.2 -66.5L115.2 66.5L0 133L-115.2 66.5L-115.2 -66.5Z" fill="#297EA6"></path></g></g></svg>